# xmcd
#
# Track frame offsets:
#	150
#	19904
#	29774
#	35250
#	42712
#	51900
#	58600
#	62579
#	68924
#	75328
#	80384
#	88686
#	100282
#	110199
#
# Disc length: 1730 seconds
#
# Revision: 1
# Processed by: cddbd v1.5.1PL0 Copyright (c) Steve Scherf et al.
# Submitted via: CDex 1.50Beta5
#
DISCID=be06c00e
DTITLE=サウンドトラック - Rimlet Original Sound Track
DYEAR=1900
DGENRE=Other
TTITLE0=冷たい雫(フルバージョン)
TTITLE1=穏やかな日溜り
TTITLE2=たおやかなほほ笑み
TTITLE3=恋する少女
TTITLE4=けだるい幸せ
TTITLE5=雨音はタメイキに似て
TTITLE6=消えない残像
TTITLE7=涙の余韻
TTITLE8=だって…
TTITLE9=触れたくて
TTITLE10=雨上がりの空に
TTITLE11=虹の出る場所
TTITLE12=冷たい雫〜instrumental version
TTITLE13=冷たい雫(カラオケバージョン)
EXTD=
EXTT0=
EXTT1=
EXTT2=
EXTT3=
EXTT4=
EXTT5=
EXTT6=
EXTT7=
EXTT8=
EXTT9=
EXTT10=
EXTT11=
EXTT12=
EXTT13=
PLAYORDER=
